<svg xmlns="http://www.w3.org/2000/svg" xmlns:xlink="http://www.w3.org/1999/xlink" width="500" zoomAndPan="magnify" viewBox="0 0 375 374.999991" height="500" preserveAspectRatio="xMidYMid meet" version="1.0"><path fill="#0080ff" d="M 1.574219 211.988281 C 26.695312 165.914062 63.613281 147.269531 141.597656 158.261719 C 204.160156 167.097656 263.402344 208.199219 374.886719 161.113281 C 241.507812 308.65625 146.640625 138.601562 1.574219 211.988281 Z M 1.574219 211.988281 " fill-opacity="1" fill-rule="nonzero"/><path fill="#101d6b" d="M 6.714844 221.3125 C 48.417969 190.789062 90.082031 195.386719 140 207.878906 C 194.253906 221.441406 261.769531 245.117188 320.054688 214.257812 C 226.839844 295.769531 104.957031 182.59375 6.714844 221.3125 Z M 6.714844 221.3125 " fill-opacity="1" fill-rule="nonzero"/><path fill="#101d6b" d="M 53.332031 155.167969 C 95.054688 124.664062 136.699219 129.257812 186.636719 141.753906 C 240.871094 155.316406 308.386719 178.992188 366.691406 148.132812 C 273.457031 229.640625 151.574219 116.445312 53.332031 155.167969 Z M 53.332031 155.167969 " fill-opacity="1" fill-rule="nonzero"/><path fill="#0080ff" d="M -0.0742188 233.035156 C 25.457031 214.371094 77.027344 214.332031 189.636719 247.480469 C 116.796875 241.609375 50.667969 216.773438 -0.0742188 233.035156 Z M -0.0742188 233.035156 " fill-opacity="1" fill-rule="nonzero"/><path fill="#0080ff" d="M 182.210938 130.667969 C 259.6875 144.921875 299.097656 168.765625 368.378906 135.617188 C 338.90625 166.628906 267.226562 167.566406 182.210938 130.667969 Z M 182.210938 130.667969 " fill-opacity="1" fill-rule="nonzero"/></svg>