<svg xmlns="http://www.w3.org/2000/svg" xmlns:xlink="http://www.w3.org/1999/xlink" width="500" zoomAndPan="magnify" viewBox="0 0 375 374.999991" height="500" preserveAspectRatio="xMidYMid meet" version="1.0"><defs><g/><clipPath id="d90dcbf59c"><path d="M 2.5 22 L 100.496094 22 L 100.496094 40 L 2.5 40 Z M 2.5 22 " clip-rule="nonzero"/></clipPath><clipPath id="3ddc0905b6"><path d="M 2.5 39 L 52 39 L 52 47 L 2.5 47 Z M 2.5 39 " clip-rule="nonzero"/></clipPath><clipPath id="ce6c6ecdc8"><path d="M 100 0.679688 L 303.640625 0.679688 L 303.640625 66.199219 L 100 66.199219 Z M 100 0.679688 " clip-rule="nonzero"/></clipPath><clipPath id="73e9e4b5b5"><rect x="0" width="204" y="0" height="67"/></clipPath><clipPath id="09bf292aef"><rect x="0" width="304" y="0" height="67"/></clipPath></defs><g transform="matrix(1, 0, 0, 1, 35, 157)"><g clip-path="url(#09bf292aef)"><g clip-path="url(#d90dcbf59c)"><path fill="#0080ff" d="M 2.910156 36.859375 C 9.464844 24.839844 19.09375 19.976562 39.4375 22.84375 C 55.761719 25.148438 71.214844 35.871094 100.300781 23.589844 C 65.503906 62.078125 40.753906 17.714844 2.910156 36.859375 Z M 2.910156 36.859375 " fill-opacity="1" fill-rule="nonzero"/></g><path fill="#dce1ff" d="M 4.253906 39.292969 C 15.132812 31.332031 26 32.53125 39.023438 35.789062 C 53.175781 39.328125 70.789062 45.503906 85.992188 37.453125 C 61.675781 58.714844 29.882812 29.191406 4.253906 39.292969 Z M 4.253906 39.292969 " fill-opacity="1" fill-rule="nonzero"/><path fill="#dce1ff" d="M 16.414062 22.035156 C 27.296875 14.078125 38.160156 15.277344 51.1875 18.539062 C 65.335938 22.074219 82.949219 28.253906 98.160156 20.203125 C 73.835938 41.464844 42.042969 11.9375 16.414062 22.035156 Z M 16.414062 22.035156 " fill-opacity="1" fill-rule="nonzero"/><g clip-path="url(#3ddc0905b6)"><path fill="#0080ff" d="M 2.480469 42.351562 C 9.140625 37.480469 22.59375 37.472656 51.972656 46.121094 C 32.96875 44.585938 15.71875 38.109375 2.480469 42.351562 Z M 2.480469 42.351562 " fill-opacity="1" fill-rule="nonzero"/></g><path fill="#0080ff" d="M 50.035156 15.644531 C 70.246094 19.363281 80.527344 25.585938 98.601562 16.9375 C 90.914062 25.027344 72.214844 25.273438 50.035156 15.644531 Z M 50.035156 15.644531 " fill-opacity="1" fill-rule="nonzero"/><g clip-path="url(#ce6c6ecdc8)"><g transform="matrix(1, 0, 0, 1, 100, 0)"><g clip-path="url(#73e9e4b5b5)"><g fill="#0080ff" fill-opacity="1"><g transform="translate(0.484156, 49.4973)"><g><path d="M 9.8125 -46.21875 L 25.046875 -11.28125 L 40.28125 -46.21875 L 49.328125 0 L 43.625 0 L 38.453125 -29.28125 L 38.328125 -29.28125 L 25.046875 0.9375 L 11.765625 -29.28125 L 11.640625 -29.28125 L 6.46875 0 L 0.765625 0 Z M 9.8125 -46.21875 "/></g></g></g><g fill="#0080ff" fill-opacity="1"><g transform="translate(50.516958, 49.4973)"><g><path d="M 9.765625 -44.328125 L 9.765625 -5.0625 L 23.21875 -5.0625 L 23.21875 0 L 4.234375 0 L 4.234375 -44.328125 Z M 9.765625 -44.328125 "/></g></g></g><g fill="#dce1ff" fill-opacity="1"><g transform="translate(73.163843, 49.4973)"><g><path d="M 13.28125 -44.328125 C 16.769531 -44.328125 20.070312 -43.804688 23.1875 -42.765625 C 26.3125 -41.734375 28.96875 -40.238281 31.15625 -38.28125 C 33.351562 -36.320312 35.007812 -34.035156 36.125 -31.421875 C 37.25 -28.816406 37.8125 -25.8125 37.8125 -22.40625 C 37.8125 -17.738281 36.78125 -13.71875 34.71875 -10.34375 C 32.65625 -6.976562 29.734375 -4.410156 25.953125 -2.640625 C 22.171875 -0.878906 17.8125 0 12.875 0 L 3.765625 0 L 3.765625 -44.328125 Z M 9.296875 -5.0625 L 10.8125 -5.0625 C 18.03125 -5.0625 23.441406 -6.550781 27.046875 -9.53125 C 30.535156 -12.507812 32.28125 -16.722656 32.28125 -22.171875 C 32.28125 -27.734375 30.492188 -31.972656 26.921875 -34.890625 C 23.359375 -37.816406 18.03125 -39.28125 10.9375 -39.28125 L 9.296875 -39.28125 Z M 9.296875 -5.0625 "/></g></g></g><g fill="#dce1ff" fill-opacity="1"><g transform="translate(112.261152, 49.4973)"><g><path d="M 27.8125 -13.34375 L 27.8125 -12.875 L 6.828125 -12.875 C 6.898438 -10.207031 7.726562 -8.019531 9.3125 -6.3125 C 10.90625 -4.613281 12.835938 -3.765625 15.109375 -3.765625 C 17.148438 -3.765625 18.773438 -4.242188 19.984375 -5.203125 C 21.203125 -6.160156 22.320312 -7.460938 23.34375 -9.109375 L 27.8125 -6.578125 C 26.519531 -4.191406 24.742188 -2.34375 22.484375 -1.03125 C 20.234375 0.28125 17.753906 0.9375 15.046875 0.9375 C 11.085938 0.9375 7.84375 -0.394531 5.3125 -3.0625 C 2.789062 -5.726562 1.53125 -9.210938 1.53125 -13.515625 C 1.53125 -18.023438 2.722656 -21.625 5.109375 -24.3125 C 7.503906 -27 10.78125 -28.34375 14.9375 -28.34375 C 18.9375 -28.34375 22.082031 -27.035156 24.375 -24.421875 C 26.664062 -21.816406 27.8125 -18.125 27.8125 -13.34375 Z M 22.515625 -16.875 C 22.203125 -18.988281 21.390625 -20.660156 20.078125 -21.890625 C 18.765625 -23.128906 17.03125 -23.75 14.875 -23.75 C 12.875 -23.75 11.15625 -23.09375 9.71875 -21.78125 C 8.289062 -20.46875 7.421875 -18.832031 7.109375 -16.875 Z M 22.515625 -16.875 "/></g></g></g><g fill="#dce1ff" fill-opacity="1"><g transform="translate(140.952108, 49.4973)"><g><path d="M 27.8125 -13.34375 L 27.8125 -12.875 L 6.828125 -12.875 C 6.898438 -10.207031 7.726562 -8.019531 9.3125 -6.3125 C 10.90625 -4.613281 12.835938 -3.765625 15.109375 -3.765625 C 17.148438 -3.765625 18.773438 -4.242188 19.984375 -5.203125 C 21.203125 -6.160156 22.320312 -7.460938 23.34375 -9.109375 L 27.8125 -6.578125 C 26.519531 -4.191406 24.742188 -2.34375 22.484375 -1.03125 C 20.234375 0.28125 17.753906 0.9375 15.046875 0.9375 C 11.085938 0.9375 7.84375 -0.394531 5.3125 -3.0625 C 2.789062 -5.726562 1.53125 -9.210938 1.53125 -13.515625 C 1.53125 -18.023438 2.722656 -21.625 5.109375 -24.3125 C 7.503906 -27 10.78125 -28.34375 14.9375 -28.34375 C 18.9375 -28.34375 22.082031 -27.035156 24.375 -24.421875 C 26.664062 -21.816406 27.8125 -18.125 27.8125 -13.34375 Z M 22.515625 -16.875 C 22.203125 -18.988281 21.390625 -20.660156 20.078125 -21.890625 C 18.765625 -23.128906 17.03125 -23.75 14.875 -23.75 C 12.875 -23.75 11.15625 -23.09375 9.71875 -21.78125 C 8.289062 -20.46875 7.421875 -18.832031 7.109375 -16.875 Z M 22.515625 -16.875 "/></g></g></g><g fill="#dce1ff" fill-opacity="1"><g transform="translate(169.643064, 49.4973)"><g><path d="M 17.984375 0.9375 C 15.992188 0.9375 14.203125 0.457031 12.609375 -0.5 C 11.023438 -1.457031 9.703125 -2.722656 8.640625 -4.296875 L 8.53125 -4.296875 L 8.53125 15.75 L 3.234375 15.75 L 3.234375 -27.515625 L 8.53125 -27.515625 L 8.53125 -22.9375 L 8.640625 -22.9375 C 9.742188 -24.582031 11.109375 -25.894531 12.734375 -26.875 C 14.359375 -27.851562 16.191406 -28.34375 18.234375 -28.34375 C 20.546875 -28.34375 22.707031 -27.722656 24.71875 -26.484375 C 26.738281 -25.253906 28.316406 -23.53125 29.453125 -21.3125 C 30.585938 -19.09375 31.15625 -16.632812 31.15625 -13.9375 C 31.15625 -11.113281 30.632812 -8.601562 29.59375 -6.40625 C 28.5625 -4.207031 27.046875 -2.429688 25.046875 -1.078125 C 23.046875 0.265625 20.691406 0.9375 17.984375 0.9375 Z M 25.875 -13.765625 C 25.875 -16.742188 25.019531 -19.132812 23.3125 -20.9375 C 21.601562 -22.738281 19.457031 -23.640625 16.875 -23.640625 C 14.40625 -23.640625 12.347656 -22.6875 10.703125 -20.78125 C 9.054688 -18.882812 8.234375 -16.546875 8.234375 -13.765625 C 8.234375 -10.859375 9.046875 -8.460938 10.671875 -6.578125 C 12.296875 -4.703125 14.382812 -3.765625 16.9375 -3.765625 C 19.601562 -3.765625 21.757812 -4.691406 23.40625 -6.546875 C 25.050781 -8.410156 25.875 -10.816406 25.875 -13.765625 Z M 25.875 -13.765625 "/></g></g></g></g></g></g></g></g></svg>