<svg xmlns="http://www.w3.org/2000/svg" xmlns:xlink="http://www.w3.org/1999/xlink" width="3264" zoomAndPan="magnify" viewBox="0 0 2448 1079.999946" height="1440" preserveAspectRatio="xMidYMid meet" version="1.0"><defs><g/><clipPath id="d6de523cf9"><path d="M 16 282 L 385 282 L 385 335 L 16 335 Z M 16 282 " clip-rule="nonzero"/></clipPath><clipPath id="4044cdc7a0"><path d="M 744 0.160156 L 2247.761719 0.160156 L 2247.761719 484.238281 L 744 484.238281 Z M 744 0.160156 " clip-rule="nonzero"/></clipPath><clipPath id="d4de482e6b"><rect x="0" width="1504" y="0" height="485"/></clipPath><clipPath id="e03e352812"><rect x="0" width="2248" y="0" height="485"/></clipPath></defs><g transform="matrix(1, 0, 0, 1, 92, 308)"><g clip-path="url(#e03e352812)"><path fill="#0080ff" d="M 19.058594 265.6875 C 67.8125 176.261719 139.46875 140.070312 290.824219 161.40625 C 412.253906 178.554688 527.238281 258.332031 743.625 166.941406 C 484.746094 453.308594 300.621094 123.25 19.058594 265.6875 Z M 19.058594 265.6875 " fill-opacity="1" fill-rule="nonzero"/><path fill="#dce1ff" d="M 29.035156 283.78125 C 109.976562 224.542969 190.84375 233.460938 287.730469 257.710938 C 393.027344 284.035156 524.070312 329.988281 637.195312 270.089844 C 456.273438 428.292969 219.714844 208.632812 29.035156 283.78125 Z M 29.035156 283.78125 " fill-opacity="1" fill-rule="nonzero"/><path fill="#dce1ff" d="M 119.515625 155.398438 C 200.492188 96.195312 281.320312 105.117188 378.246094 129.367188 C 483.507812 155.691406 614.550781 201.640625 727.710938 141.746094 C 546.753906 299.949219 310.195312 80.25 119.515625 155.398438 Z M 119.515625 155.398438 " fill-opacity="1" fill-rule="nonzero"/><g clip-path="url(#d6de523cf9)"><path fill="#0080ff" d="M 15.855469 306.539062 C 65.410156 270.308594 165.5 270.238281 384.070312 334.574219 C 242.691406 323.179688 114.34375 274.96875 15.855469 306.539062 Z M 15.855469 306.539062 " fill-opacity="1" fill-rule="nonzero"/></g><path fill="#0080ff" d="M 369.652344 107.847656 C 520.027344 135.519531 596.527344 181.796875 730.988281 117.460938 C 673.789062 177.644531 534.664062 179.464844 369.652344 107.847656 Z M 369.652344 107.847656 " fill-opacity="1" fill-rule="nonzero"/><g clip-path="url(#4044cdc7a0)"><g transform="matrix(1, 0, 0, 1, 744, 0.000000000000056843)"><g clip-path="url(#d4de482e6b)"><g fill="#0080ff" fill-opacity="1"><g transform="translate(0.93518, 360.304207)"><g><path d="M 73.0625 -343.890625 L 186.375 -84 L 299.703125 -343.890625 L 367.078125 0 L 324.640625 0 L 286.140625 -217.890625 L 285.265625 -217.890625 L 186.375 7 L 87.5 -217.890625 L 86.625 -217.890625 L 48.125 0 L 5.6875 0 Z M 73.0625 -343.890625 "/></g></g></g><g fill="#0080ff" fill-opacity="1"><g transform="translate(373.257661, 360.304207)"><g><path d="M 72.625 -329.890625 L 72.625 -37.625 L 172.8125 -37.625 L 172.8125 0 L 31.5 0 L 31.5 -329.890625 Z M 72.625 -329.890625 "/></g></g></g><g fill="#dce1ff" fill-opacity="1"><g transform="translate(541.708571, 360.304207)"><g><path d="M 98.875 -329.890625 C 124.832031 -329.890625 149.40625 -326.023438 172.59375 -318.296875 C 195.78125 -310.566406 215.539062 -299.410156 231.875 -284.828125 C 248.21875 -270.242188 260.546875 -253.25 268.859375 -233.84375 C 277.171875 -214.445312 281.328125 -192.0625 281.328125 -166.6875 C 281.328125 -131.976562 273.671875 -102.082031 258.359375 -77 C 243.046875 -51.914062 221.3125 -32.8125 193.15625 -19.6875 C 165.007812 -6.5625 132.5625 0 95.8125 0 L 28 0 L 28 -329.890625 Z M 69.125 -37.625 L 80.5 -37.625 C 134.164062 -37.625 174.414062 -48.707031 201.25 -70.875 C 227.21875 -93.039062 240.203125 -124.394531 240.203125 -164.9375 C 240.203125 -206.363281 226.925781 -237.941406 200.375 -259.671875 C 173.832031 -281.398438 134.164062 -292.265625 81.375 -292.265625 L 69.125 -292.265625 Z M 69.125 -37.625 "/></g></g></g><g fill="#dce1ff" fill-opacity="1"><g transform="translate(832.653795, 360.304207)"><g><path d="M 206.9375 -99.3125 L 206.9375 -95.8125 L 50.75 -95.8125 C 51.332031 -75.976562 57.53125 -59.71875 69.34375 -47.03125 C 81.15625 -34.34375 95.519531 -28 112.4375 -28 C 127.601562 -28 139.707031 -31.570312 148.75 -38.71875 C 157.789062 -45.863281 166.101562 -55.5625 173.6875 -67.8125 L 206.9375 -49 C 197.3125 -31.207031 184.113281 -17.425781 167.34375 -7.65625 C 150.570312 2.113281 132.125 7 112 7 C 82.539062 7 58.40625 -2.914062 39.59375 -22.75 C 20.78125 -42.582031 11.375 -68.539062 11.375 -100.625 C 11.375 -134.164062 20.269531 -160.925781 38.0625 -180.90625 C 55.851562 -200.882812 80.207031 -210.875 111.125 -210.875 C 140.875 -210.875 164.28125 -201.175781 181.34375 -181.78125 C 198.40625 -162.382812 206.9375 -134.894531 206.9375 -99.3125 Z M 167.5625 -125.5625 C 165.226562 -141.3125 159.175781 -153.78125 149.40625 -162.96875 C 139.632812 -172.15625 126.726562 -176.75 110.6875 -176.75 C 95.8125 -176.75 83.050781 -171.863281 72.40625 -162.09375 C 61.757812 -152.320312 55.269531 -140.144531 52.9375 -125.5625 Z M 167.5625 -125.5625 "/></g></g></g><g fill="#dce1ff" fill-opacity="1"><g transform="translate(1046.159515, 360.304207)"><g><path d="M 206.9375 -99.3125 L 206.9375 -95.8125 L 50.75 -95.8125 C 51.332031 -75.976562 57.53125 -59.71875 69.34375 -47.03125 C 81.15625 -34.34375 95.519531 -28 112.4375 -28 C 127.601562 -28 139.707031 -31.570312 148.75 -38.71875 C 157.789062 -45.863281 166.101562 -55.5625 173.6875 -67.8125 L 206.9375 -49 C 197.3125 -31.207031 184.113281 -17.425781 167.34375 -7.65625 C 150.570312 2.113281 132.125 7 112 7 C 82.539062 7 58.40625 -2.914062 39.59375 -22.75 C 20.78125 -42.582031 11.375 -68.539062 11.375 -100.625 C 11.375 -134.164062 20.269531 -160.925781 38.0625 -180.90625 C 55.851562 -200.882812 80.207031 -210.875 111.125 -210.875 C 140.875 -210.875 164.28125 -201.175781 181.34375 -181.78125 C 198.40625 -162.382812 206.9375 -134.894531 206.9375 -99.3125 Z M 167.5625 -125.5625 C 165.226562 -141.3125 159.175781 -153.78125 149.40625 -162.96875 C 139.632812 -172.15625 126.726562 -176.75 110.6875 -176.75 C 95.8125 -176.75 83.050781 -171.863281 72.40625 -162.09375 C 61.757812 -152.320312 55.269531 -140.144531 52.9375 -125.5625 Z M 167.5625 -125.5625 "/></g></g></g><g fill="#dce1ff" fill-opacity="1"><g transform="translate(1259.665236, 360.304207)"><g><path d="M 133.875 7 C 119 7 105.65625 3.425781 93.84375 -3.71875 C 82.03125 -10.863281 72.1875 -20.269531 64.3125 -31.9375 L 63.4375 -31.9375 L 63.4375 117.25 L 24.0625 117.25 L 24.0625 -204.75 L 63.4375 -204.75 L 63.4375 -170.625 L 64.3125 -170.625 C 72.476562 -182.875 82.613281 -192.644531 94.71875 -199.9375 C 106.820312 -207.226562 120.457031 -210.875 135.625 -210.875 C 152.832031 -210.875 168.945312 -206.28125 183.96875 -197.09375 C 198.988281 -187.90625 210.726562 -175.070312 219.1875 -158.59375 C 227.65625 -142.113281 231.890625 -123.8125 231.890625 -103.6875 C 231.890625 -82.6875 228.019531 -64.019531 220.28125 -47.6875 C 212.550781 -31.351562 201.25 -18.15625 186.375 -8.09375 C 171.5 1.96875 154 7 133.875 7 Z M 192.5 -102.375 C 192.5 -124.539062 186.15625 -142.332031 173.46875 -155.75 C 160.78125 -169.164062 144.8125 -175.875 125.5625 -175.875 C 107.1875 -175.875 91.875 -168.800781 79.625 -154.65625 C 67.375 -140.507812 61.25 -123.082031 61.25 -102.375 C 61.25 -80.789062 67.300781 -63 79.40625 -49 C 91.507812 -35 107.039062 -28 126 -28 C 145.832031 -28 161.875 -34.925781 174.125 -48.78125 C 186.375 -62.632812 192.5 -80.5 192.5 -102.375 Z M 192.5 -102.375 "/></g></g></g></g></g></g></g></g></svg>